<?xml version="1.0" encoding="utf-8"?>
<!-- Generator: Adobe Illustrator 25.0.1, SVG Export Plug-In . SVG Version: 6.00 Build 0)  -->
<svg version="1.1" xmlns="http://www.w3.org/2000/svg" xmlns:xlink="http://www.w3.org/1999/xlink" x="0px" y="0px"
	 viewBox="0 0 981.8 964.2" style="enable-background:new 0 0 981.8 964.2;" xml:space="preserve">
<style type="text/css">
	.st0{display:none;}
	.st1{display:inline;}
</style>
<g id="_圖層_1">
	<g>
		<g transform="translate(513.99 69.34) rotate(-9.1) scale(.23 .21)">
			
				<image style="overflow:visible;enable-background:new    ;" width="504" height="512" id="image-2" xlink:href="80BCAA7678D545DF.png"  transform="matrix(0.2271 -3.637636e-02 3.321319e-02 0.2074 513.99 69.34)">
			</image>
		</g>
		
			<image style="overflow:visible;enable-background:new    ;" width="206" height="201" xlink:href="80BCAA7678D545DD.png"  transform="matrix(0.995 0 0 0.995 482.1324 14)">
		</image>
	</g>
	<g>
		
			<image style="overflow:visible;enable-background:new    ;" width="226" height="207" xlink:href="80BCAA7678D545E3.png"  transform="matrix(0.9952 0 0 0.9952 151.1659 146)">
		</image>
		
			<image style="overflow:visible;enable-background:new    ;" width="510" height="444" xlink:href="80BCAA7678D545E5.png"  transform="matrix(0.3012 0 0 0.3012 194.3 172.8088)">
		</image>
	</g>
	<g>
		<g transform="translate(201.79 786.15) rotate(-155.01) scale(.33)">
			
				<image style="overflow:visible;enable-background:new    ;" width="512" height="345" id="image_2_" xlink:href="80BCAA7678D545E7.png"  transform="matrix(-0.2991 -0.1394 0.1394 -0.2991 201.79 786.15)">
			</image>
		</g>
		
			<image style="overflow:visible;enable-background:new    ;" width="278" height="251" xlink:href="80BCAA7678D545E4.png"  transform="matrix(0.996 0 0 0.996 10.1738 567)">
		</image>
	</g>
	<g>
		
			<image style="overflow:visible;enable-background:new    ;" width="226" height="207" xlink:href="80BCAA7678D545EC.png"  transform="matrix(0.9952 0 0 0.9952 605.1659 612)">
		</image>
		
			<image style="overflow:visible;enable-background:new    ;" width="512" height="447" xlink:href="80BCAA7678D545ED.png"  transform="matrix(-0.3 0 0 -0.3 787.53 791.54)">
		</image>
	</g>
	<g>
		
			<image style="overflow:visible;enable-background:new    ;" width="269" height="280" xlink:href="80BCAA7678D545EF.png"  transform="matrix(0.9963 0 0 0.9963 750.12 335.0204)">
		</image>
		
			<image style="overflow:visible;enable-background:new    ;" width="454" height="512" xlink:href="9B44A31F76D3194C.png"  transform="matrix(-0.43 0 0 -0.4 975.27 578.93)">
		</image>
	</g>
</g>
<g id="Layer_3" class="st0">
	<g class="st1">
		<g transform="translate(101.45 305.35) rotate(9.37) scale(.43)">
			
				<image style="overflow:visible;enable-background:new    ;" width="512" height="206" id="image-3" xlink:href="9B44A31F76D3194B.png"  transform="matrix(0.4243 7.000803e-02 -7.000803e-02 0.4243 101.45 305.35)">
			</image>
		</g>
		
			<image style="overflow:visible;enable-background:new    ;" width="304" height="196" xlink:href="9B44A31F76D31944.png"  transform="matrix(0.9949 0 0 0.9949 43.3955 266)">
		</image>
	</g>
	<g class="st1">
		<g transform="translate(780.04 178.01) rotate(24.99) scale(.33)">
			
				<image style="overflow:visible;enable-background:new    ;" width="512" height="345" id="image" xlink:href="9B44A31F76D31947.png"  transform="matrix(0.2991 0.1394 -0.1394 0.2991 780.04 178.01)">
			</image>
		</g>
		
			<image style="overflow:visible;enable-background:new    ;" width="278" height="251" xlink:href="9B44A31F76D31945.png"  transform="matrix(0.996 0 0 0.996 695.1738 147)">
		</image>
	</g>
	<g class="st1">
		<g transform="translate(467.84 894.83) rotate(170.9) scale(.23 .21)">
			
				<image style="overflow:visible;enable-background:new    ;" width="504" height="512" id="image-2_2_" xlink:href="9B44A31F76D3195B.png"  transform="matrix(-0.2271 3.637638e-02 -3.321321e-02 -0.2074 467.84 894.83)">
			</image>
		</g>
		
			<image style="overflow:visible;enable-background:new    ;" width="206" height="201" xlink:href="9B44A31F76D3195C.png"  transform="matrix(0.995 0 0 0.995 295.1324 750)">
		</image>
	</g>
	<g class="st1">
		
			<image style="overflow:visible;enable-background:new    ;" width="277" height="277" xlink:href="9B44A31F76D3195F.png"  transform="matrix(0.9964 0 0 0.9964 122.12 702)">
		</image>
		<g transform="translate(271.97 936.03) rotate(-140.59) scale(.28)">
			
				<image style="overflow:visible;enable-background:new    ;" width="503" height="512" id="image-4_2_" xlink:href="9B44A31F76D3195D.png"  transform="matrix(-0.2163 -0.1778 0.1778 -0.2163 271.97 936.03)">
			</image>
		</g>
	</g>
</g>
<g id="Layer_2" class="st0">
	<g class="st1">
		
			<image style="overflow:visible;enable-background:new    ;" width="512" height="492" xlink:href="9B44A31F76D3195A.png"  transform="matrix(-0.4 0 0 -0.4 675 958.72)">
		</image>
		
			<image style="overflow:visible;enable-background:new    ;" width="280" height="272" xlink:href="9B44A31F76D3197F.png"  transform="matrix(0.9963 0 0 0.9963 435.1347 730)">
		</image>
	</g>
	<g class="st1">
		
			<image style="overflow:visible;enable-background:new    ;" width="270" height="281" xlink:href="9B44A31F76D31979.png"  transform="matrix(0.9963 0 0 0.9963 -36.88 350.0204)">
		</image>
		
			<image style="overflow:visible;enable-background:new    ;" width="454" height="480" xlink:href="9B44A31F76D3197B.png"  transform="matrix(0.43 0 0 0.4 6.56 391.63)">
		</image>
	</g>
	<g class="st1">
		<g transform="translate(880.38 658.81) rotate(-170.63) scale(.43)">
			
				<image style="overflow:visible;enable-background:new    ;" width="512" height="206" id="image-3_2_" xlink:href="9B44A31F76D31976.png"  transform="matrix(-0.4243 -7.000799e-02 7.000799e-02 -0.4243 880.38 658.81)">
			</image>
		</g>
		
			<image style="overflow:visible;enable-background:new    ;" width="303" height="197" xlink:href="9B44A31F76D31977.png"  transform="matrix(0.9949 0 0 0.9949 636.389 503)">
		</image>
	</g>
	<g class="st1">
		
			<image style="overflow:visible;enable-background:new    ;" width="511" height="492" xlink:href="9B44A31F76D31969.png"  transform="matrix(0.4 0 0 0.4 307.03 5.45)">
		</image>
		
			<image style="overflow:visible;enable-background:new    ;" width="279" height="271" xlink:href="9B44A31F76D3196B.png"  transform="matrix(0.9963 0 0 0.9963 268.1348 -36)">
		</image>
	</g>
	<g class="st1">
		
			<image style="overflow:visible;enable-background:new    ;" width="277" height="277" xlink:href="9B44A31F76D3196E.png"  transform="matrix(0.9964 0 0 0.9964 583.12 -14)">
		</image>
		<g transform="translate(709.85 28.14) rotate(39.41) scale(.28)">
			
				<image style="overflow:visible;enable-background:new    ;" width="503" height="512" id="image-4" xlink:href="9B44A31F76D3196F.png"  transform="matrix(0.2163 0.1778 -0.1778 0.2163 709.85 28.14)">
			</image>
		</g>
	</g>
</g>
</svg>
